{
	"asset":{
		"generator":"Khronos glTF Blender I/O v3.6.27",
		"version":"2.0"
	},
	"scene":0,
	"scenes":[
		{
			"name":"Scene",
			"nodes":[
				0
			]
		}
	],
	"nodes":[
		{
			"mesh":0,
			"name":"Shoe"
		}
	],
	"materials":[
		{
			"doubleSided":true,
			"name":"laces",
			"normalTexture":{
				"index":0
			},
			"occlusionTexture":{
				"index":1
			},
			"pbrMetallicRoughness":{
				"metallicRoughnessTexture":{
					"index":1
				}
			}
		},
		{
			"name":"mesh",
			"normalTexture":{
				"index":2
			},
			"occlusionTexture":{
				"index":3
			},
			"pbrMetallicRoughness":{
				"metallicRoughnessTexture":{
					"index":3
				}
			}
		},
		{
			"doubleSided":true,
			"name":"caps",
			"pbrMetallicRoughness":{
				"metallicFactor":0.5,
				"roughnessFactor":0.5
			}
		},
		{
			"doubleSided":true,
			"name":"inner",
			"normalTexture":{
				"index":4
			},
			"occlusionTexture":{
				"index":5
			},
			"pbrMetallicRoughness":{
				"metallicRoughnessTexture":{
					"index":5
				}
			}
		},
		{
			"doubleSided":true,
			"name":"sole",
			"normalTexture":{
				"index":6
			},
			"occlusionTexture":{
				"index":7
			},
			"pbrMetallicRoughness":{
				"metallicRoughnessTexture":{
					"index":7
				}
			}
		},
		{
			"doubleSided":true,
			"name":"stripes",
			"normalTexture":{
				"index":8
			},
			"occlusionTexture":{
				"index":9
			},
			"pbrMetallicRoughness":{
				"metallicRoughnessTexture":{
					"index":9
				}
			}
		},
		{
			"doubleSided":true,
			"name":"band",
			"normalTexture":{
				"index":10
			},
			"occlusionTexture":{
				"index":11
			},
			"pbrMetallicRoughness":{
				"metallicRoughnessTexture":{
					"index":11
				}
			}
		},
		{
			"doubleSided":true,
			"name":"patch",
			"normalTexture":{
				"index":12
			},
			"occlusionTexture":{
				"index":13
			},
			"pbrMetallicRoughness":{
				"metallicRoughnessTexture":{
					"index":13
				}
			}
		}
	],
	"meshes":[
		{
			"name":"shoe",
			"primitives":[
				{
					"attributes":{
						"POSITION":0,
						"NORMAL":1,
						"TEXCOORD_0":2
					},
					"indices":3,
					"material":0
				},
				{
					"attributes":{
						"POSITION":4,
						"NORMAL":5,
						"TEXCOORD_0":6
					},
					"indices":7,
					"material":1
				},
				{
					"attributes":{
						"POSITION":8,
						"NORMAL":9,
						"TEXCOORD_0":10
					},
					"indices":11,
					"material":2
				},
				{
					"attributes":{
						"POSITION":12,
						"NORMAL":13,
						"TEXCOORD_0":14
					},
					"indices":15,
					"material":3
				},
				{
					"attributes":{
						"POSITION":16,
						"NORMAL":17,
						"TEXCOORD_0":18
					},
					"indices":19,
					"material":4
				},
				{
					"attributes":{
						"POSITION":20,
						"NORMAL":21,
						"TEXCOORD_0":22
					},
					"indices":23,
					"material":5
				},
				{
					"attributes":{
						"POSITION":24,
						"NORMAL":25,
						"TEXCOORD_0":26
					},
					"indices":27,
					"material":6
				},
				{
					"attributes":{
						"POSITION":28,
						"NORMAL":29,
						"TEXCOORD_0":30
					},
					"indices":31,
					"material":7
				}
			]
		}
	],
	"textures":[
		{
			"sampler":0,
			"source":0
		},
		{
			"sampler":0,
			"source":1
		},
		{
			"sampler":0,
			"source":0
		},
		{
			"sampler":0,
			"source":1
		},
		{
			"sampler":0,
			"source":0
		},
		{
			"sampler":0,
			"source":1
		},
		{
			"sampler":0,
			"source":0
		},
		{
			"sampler":0,
			"source":1
		},
		{
			"sampler":0,
			"source":0
		},
		{
			"sampler":0,
			"source":1
		},
		{
			"sampler":0,
			"source":0
		},
		{
			"sampler":0,
			"source":1
		},
		{
			"sampler":0,
			"source":0
		},
		{
			"sampler":0,
			"source":1
		}
	],
	"images":[
		{
			"bufferView":4,
			"mimeType":"image/jpeg",
			"name":"normal"
		},
		{
			"bufferView":5,
			"mimeType":"image/jpeg",
			"name":"occlusionRougnessMetalness"
		}
	],
	"accessors":[
		{
			"bufferView":0,
			"componentType":5126,
			"count":1557,
			"max":[
				0.31010252237319946,
				0.23435352742671967,
				0.19393111765384674
			],
			"min":[
				-0.21236468851566315,
				-0.11542611569166183,
				-0.27246636152267456
			],
			"type":"VEC3"
		},
		{
			"bufferView":1,
			"componentType":5126,
			"count":1557,
			"type":"VEC3"
		},
		{
			"bufferView":2,
			"componentType":5126,
			"count":1557,
			"type":"VEC2"
		},
		{
			"bufferView":3,
			"componentType":5123,
			"count":7227,
			"type":"SCALAR"
		},
		{
			"bufferView":6,
			"componentType":5126,
			"count":5208,
			"max":[
				0.9846919178962708,
				0.3809230625629425,
				0.3442471921443939
			],
			"min":[
				-0.9474887251853943,
				-0.3825278878211975,
				-0.35044431686401367
			],
			"type":"VEC3"
		},
		{
			"bufferView":7,
			"componentType":5126,
			"count":5208,
			"type":"VEC3"
		},
		{
			"bufferView":8,
			"componentType":5126,
			"count":5208,
			"type":"VEC2"
		},
		{
			"bufferView":9,
			"componentType":5123,
			"count":21165,
			"type":"SCALAR"
		},
		{
			"bufferView":10,
			"componentType":5126,
			"count":1377,
			"max":[
				0.2774718105792999,
				0.16645346581935883,
				0.19632135331630707
			],
			"min":[
				-0.2291366010904312,
				-0.13262774050235748,
				-0.2687131464481354
			],
			"type":"VEC3"
		},
		{
			"bufferView":11,
			"componentType":5126,
			"count":1377,
			"type":"VEC3"
		},
		{
			"bufferView":12,
			"componentType":5126,
			"count":1377,
			"type":"VEC2"
		},
		{
			"bufferView":13,
			"componentType":5123,
			"count":6210,
			"type":"SCALAR"
		},
		{
			"bufferView":14,
			"componentType":5126,
			"count":2170,
			"max":[
				0.9421579241752625,
				0.40126022696495056,
				0.2965231239795685
			],
			"min":[
				-0.8118161559104919,
				-0.38051360845565796,
				-0.3006590008735657
			],
			"type":"VEC3"
		},
		{
			"bufferView":15,
			"componentType":5126,
			"count":2170,
			"type":"VEC3"
		},
		{
			"bufferView":16,
			"componentType":5126,
			"count":2170,
			"type":"VEC2"
		},
		{
			"bufferView":17,
			"componentType":5123,
			"count":11025,
			"type":"SCALAR"
		},
		{
			"bufferView":18,
			"componentType":5126,
			"count":1318,
			"max":[
				1.0000001192092896,
				-0.220381498336792,
				0.38874176144599915
			],
			"min":[
				-1,
				-0.5139704942703247,
				-0.38874176144599915
			],
			"type":"VEC3"
		},
		{
			"bufferView":19,
			"componentType":5126,
			"count":1318,
			"type":"VEC3"
		},
		{
			"bufferView":20,
			"componentType":5126,
			"count":1318,
			"type":"VEC2"
		},
		{
			"bufferView":21,
			"componentType":5123,
			"count":6315,
			"type":"SCALAR"
		},
		{
			"bufferView":22,
			"componentType":5126,
			"count":1571,
			"max":[
				0.20826250314712524,
				0.004239952191710472,
				0.32903969287872314
			],
			"min":[
				-0.2780020833015442,
				-0.3307887613773346,
				-0.3230103552341461
			],
			"type":"VEC3"
		},
		{
			"bufferView":23,
			"componentType":5126,
			"count":1571,
			"type":"VEC3"
		},
		{
			"bufferView":24,
			"componentType":5126,
			"count":1571,
			"type":"VEC2"
		},
		{
			"bufferView":25,
			"componentType":5123,
			"count":7350,
			"type":"SCALAR"
		},
		{
			"bufferView":26,
			"componentType":5126,
			"count":1707,
			"max":[
				0.34729886054992676,
				0.5139704942703247,
				0.0058010234497487545
			],
			"min":[
				-0.8557736277580261,
				-0.08276855945587158,
				-0.09417246282100677
			],
			"type":"VEC3"
		},
		{
			"bufferView":27,
			"componentType":5126,
			"count":1707,
			"type":"VEC3"
		},
		{
			"bufferView":28,
			"componentType":5126,
			"count":1707,
			"type":"VEC2"
		},
		{
			"bufferView":29,
			"componentType":5123,
			"count":7860,
			"type":"SCALAR"
		},
		{
			"bufferView":30,
			"componentType":5126,
			"count":219,
			"max":[
				-0.7029263377189636,
				0.17990857362747192,
				0.1358068436384201
			],
			"min":[
				-0.9019400477409363,
				-0.021011920645833015,
				-0.22399701178073883
			],
			"type":"VEC3"
		},
		{
			"bufferView":31,
			"componentType":5126,
			"count":219,
			"type":"VEC3"
		},
		{
			"bufferView":32,
			"componentType":5126,
			"count":219,
			"type":"VEC2"
		},
		{
			"bufferView":33,
			"componentType":5123,
			"count":948,
			"type":"SCALAR"
		}
	],
	"bufferViews":[
		{
			"buffer":0,
			"byteLength":18684,
			"byteOffset":0,
			"target":34962
		},
		{
			"buffer":0,
			"byteLength":18684,
			"byteOffset":18684,
			"target":34962
		},
		{
			"buffer":0,
			"byteLength":12456,
			"byteOffset":37368,
			"target":34962
		},
		{
			"buffer":0,
			"byteLength":14454,
			"byteOffset":49824,
			"target":34963
		},
		{
			"buffer":0,
			"byteLength":102393,
			"byteOffset":64280
		},
		{
			"buffer":0,
			"byteLength":75509,
			"byteOffset":166676
		},
		{
			"buffer":0,
			"byteLength":62496,
			"byteOffset":242188,
			"target":34962
		},
		{
			"buffer":0,
			"byteLength":62496,
			"byteOffset":304684,
			"target":34962
		},
		{
			"buffer":0,
			"byteLength":41664,
			"byteOffset":367180,
			"target":34962
		},
		{
			"buffer":0,
			"byteLength":42330,
			"byteOffset":408844,
			"target":34963
		},
		{
			"buffer":0,
			"byteLength":16524,
			"byteOffset":451176,
			"target":34962
		},
		{
			"buffer":0,
			"byteLength":16524,
			"byteOffset":467700,
			"target":34962
		},
		{
			"buffer":0,
			"byteLength":11016,
			"byteOffset":484224,
			"target":34962
		},
		{
			"buffer":0,
			"byteLength":12420,
			"byteOffset":495240,
			"target":34963
		},
		{
			"buffer":0,
			"byteLength":26040,
			"byteOffset":507660,
			"target":34962
		},
		{
			"buffer":0,
			"byteLength":26040,
			"byteOffset":533700,
			"target":34962
		},
		{
			"buffer":0,
			"byteLength":17360,
			"byteOffset":559740,
			"target":34962
		},
		{
			"buffer":0,
			"byteLength":22050,
			"byteOffset":577100,
			"target":34963
		},
		{
			"buffer":0,
			"byteLength":15816,
			"byteOffset":599152,
			"target":34962
		},
		{
			"buffer":0,
			"byteLength":15816,
			"byteOffset":614968,
			"target":34962
		},
		{
			"buffer":0,
			"byteLength":10544,
			"byteOffset":630784,
			"target":34962
		},
		{
			"buffer":0,
			"byteLength":12630,
			"byteOffset":641328,
			"target":34963
		},
		{
			"buffer":0,
			"byteLength":18852,
			"byteOffset":653960,
			"target":34962
		},
		{
			"buffer":0,
			"byteLength":18852,
			"byteOffset":672812,
			"target":34962
		},
		{
			"buffer":0,
			"byteLength":12568,
			"byteOffset":691664,
			"target":34962
		},
		{
			"buffer":0,
			"byteLength":14700,
			"byteOffset":704232,
			"target":34963
		},
		{
			"buffer":0,
			"byteLength":20484,
			"byteOffset":718932,
			"target":34962
		},
		{
			"buffer":0,
			"byteLength":20484,
			"byteOffset":739416,
			"target":34962
		},
		{
			"buffer":0,
			"byteLength":13656,
			"byteOffset":759900,
			"target":34962
		},
		{
			"buffer":0,
			"byteLength":15720,
			"byteOffset":773556,
			"target":34963
		},
		{
			"buffer":0,
			"byteLength":2628,
			"byteOffset":789276,
			"target":34962
		},
		{
			"buffer":0,
			"byteLength":2628,
			"byteOffset":791904,
			"target":34962
		},
		{
			"buffer":0,
			"byteLength":1752,
			"byteOffset":794532,
			"target":34962
		},
		{
			"buffer":0,
			"byteLength":1896,
			"byteOffset":796284,
			"target":34963
		}
	],
	"samplers":[
		{
			"magFilter":9729,
			"minFilter":9987
		}
	],
	"buffers":[
		{
			"byteLength":798180,
			"uri":"data:application/octet-stream;base64,"
		}
	]
}
